<?xml version="1.0" encoding="UTF-8" standalone="no"?>
<!DOCTYPE svg PUBLIC "-//W3C//DTD SVG 1.1//EN"
 "http://www.w3.org/Graphics/SVG/1.1/DTD/svg11.dtd">
<!-- Generated by graphviz version 7.1.0 (0)
 -->
<!-- Title: micro Pages: 1 -->
<svg width="602pt" height="186pt"
 viewBox="0.00 0.00 602.00 186.00" xmlns="http://www.w3.org/2000/svg" xmlns:xlink="http://www.w3.org/1999/xlink">
<g id="graph0" class="graph" transform="scale(1 1) rotate(0) translate(4 182)">
<title>micro</title>
<polygon fill="white" stroke="none" points="-4,4 -4,-182 598,-182 598,4 -4,4"/>
<!-- L -->
<g id="node1" class="node">
<title>L</title>
<polygon fill="none" stroke="black" points="540,-32.5 540,-78.5 594,-78.5 594,-32.5 540,-32.5"/>
<text text-anchor="middle" x="567" y="-63.3" font-family="Times,serif" font-size="14.00">L</text>
<polyline fill="none" stroke="black" points="540,-55.5 594,-55.5"/>
<text text-anchor="middle" x="567" y="-40.3" font-family="Times,serif" font-size="14.00">&#45;8</text>
</g>
<!-- L* -->
<g id="node2" class="node">
<title>L*</title>
<ellipse fill="none" stroke="black" cx="477" cy="-55.5" rx="27" ry="18"/>
<text text-anchor="middle" x="477" y="-51.8" font-family="Times,serif" font-size="14.00">*</text>
</g>
<!-- L*&#45;&gt;L -->
<g id="edge1" class="edge">
<title>L*&#45;&gt;L</title>
<path fill="none" stroke="black" d="M504.4,-55.5C512.11,-55.5 520.68,-55.5 528.92,-55.5"/>
<polygon fill="black" stroke="black" points="528.71,-59 538.71,-55.5 528.71,-52 528.71,-59"/>
</g>
<!-- d -->
<g id="node3" class="node">
<title>d</title>
<polygon fill="none" stroke="black" points="360,-65.5 360,-111.5 414,-111.5 414,-65.5 360,-65.5"/>
<text text-anchor="middle" x="387" y="-96.3" font-family="Times,serif" font-size="14.00">d</text>
<polyline fill="none" stroke="black" points="360,-88.5 414,-88.5"/>
<text text-anchor="middle" x="387" y="-73.3" font-family="Times,serif" font-size="14.00">4</text>
</g>
<!-- d&#45;&gt;L* -->
<g id="edge2" class="edge">
<title>d&#45;&gt;L*</title>
<path fill="none" stroke="black" d="M413.93,-78.78C422.82,-75.44 432.9,-71.66 442.32,-68.13"/>
<polygon fill="black" stroke="black" points="443.4,-71.46 451.53,-64.67 440.94,-64.91 443.4,-71.46"/>
</g>
<!-- e -->
<g id="node4" class="node">
<title>e</title>
<polygon fill="none" stroke="black" points="180,-98.5 180,-144.5 234,-144.5 234,-98.5 180,-98.5"/>
<text text-anchor="middle" x="207" y="-129.3" font-family="Times,serif" font-size="14.00">e</text>
<polyline fill="none" stroke="black" points="180,-121.5 234,-121.5"/>
<text text-anchor="middle" x="207" y="-106.3" font-family="Times,serif" font-size="14.00">&#45;6</text>
</g>
<!-- d+ -->
<g id="node5" class="node">
<title>d+</title>
<ellipse fill="none" stroke="black" cx="297" cy="-88.5" rx="27" ry="18"/>
<text text-anchor="middle" x="297" y="-84.8" font-family="Times,serif" font-size="14.00">+</text>
</g>
<!-- e&#45;&gt;d+ -->
<g id="edge3" class="edge">
<title>e&#45;&gt;d+</title>
<path fill="none" stroke="black" d="M233.93,-111.78C242.82,-108.44 252.9,-104.66 262.32,-101.13"/>
<polygon fill="black" stroke="black" points="263.4,-104.46 271.53,-97.67 260.94,-97.91 263.4,-104.46"/>
</g>
<!-- d+&#45;&gt;d -->
<g id="edge8" class="edge">
<title>d+&#45;&gt;d</title>
<path fill="none" stroke="black" d="M324.4,-88.5C332.11,-88.5 340.68,-88.5 348.92,-88.5"/>
<polygon fill="black" stroke="black" points="348.71,-92 358.71,-88.5 348.71,-85 348.71,-92"/>
</g>
<!-- a -->
<g id="node6" class="node">
<title>a</title>
<polygon fill="none" stroke="black" points="0,-131.5 0,-177.5 54,-177.5 54,-131.5 0,-131.5"/>
<text text-anchor="middle" x="27" y="-162.3" font-family="Times,serif" font-size="14.00">a</text>
<polyline fill="none" stroke="black" points="0,-154.5 54,-154.5"/>
<text text-anchor="middle" x="27" y="-139.3" font-family="Times,serif" font-size="14.00">2</text>
</g>
<!-- e* -->
<g id="node7" class="node">
<title>e*</title>
<ellipse fill="none" stroke="black" cx="117" cy="-121.5" rx="27" ry="18"/>
<text text-anchor="middle" x="117" y="-117.8" font-family="Times,serif" font-size="14.00">*</text>
</g>
<!-- a&#45;&gt;e* -->
<g id="edge4" class="edge">
<title>a&#45;&gt;e*</title>
<path fill="none" stroke="black" d="M53.93,-144.78C62.82,-141.44 72.9,-137.66 82.32,-134.13"/>
<polygon fill="black" stroke="black" points="83.4,-137.46 91.53,-130.67 80.94,-130.91 83.4,-137.46"/>
</g>
<!-- e*&#45;&gt;e -->
<g id="edge9" class="edge">
<title>e*&#45;&gt;e</title>
<path fill="none" stroke="black" d="M144.4,-121.5C152.11,-121.5 160.68,-121.5 168.92,-121.5"/>
<polygon fill="black" stroke="black" points="168.71,-125 178.71,-121.5 168.71,-118 168.71,-125"/>
</g>
<!-- b -->
<g id="node8" class="node">
<title>b</title>
<polygon fill="none" stroke="black" points="0,-66.5 0,-112.5 54,-112.5 54,-66.5 0,-66.5"/>
<text text-anchor="middle" x="27" y="-97.3" font-family="Times,serif" font-size="14.00">b</text>
<polyline fill="none" stroke="black" points="0,-89.5 54,-89.5"/>
<text text-anchor="middle" x="27" y="-74.3" font-family="Times,serif" font-size="14.00">&#45;3</text>
</g>
<!-- b&#45;&gt;e* -->
<g id="edge5" class="edge">
<title>b&#45;&gt;e*</title>
<path fill="none" stroke="black" d="M53.93,-98.93C62.75,-102.13 72.74,-105.77 82.08,-109.17"/>
<polygon fill="black" stroke="black" points="80.64,-112.37 91.23,-112.49 83.03,-105.79 80.64,-112.37"/>
</g>
<!-- c -->
<g id="node9" class="node">
<title>c</title>
<polygon fill="none" stroke="black" points="180,-33.5 180,-79.5 234,-79.5 234,-33.5 180,-33.5"/>
<text text-anchor="middle" x="207" y="-64.3" font-family="Times,serif" font-size="14.00">c</text>
<polyline fill="none" stroke="black" points="180,-56.5 234,-56.5"/>
<text text-anchor="middle" x="207" y="-41.3" font-family="Times,serif" font-size="14.00">10</text>
</g>
<!-- c&#45;&gt;d+ -->
<g id="edge6" class="edge">
<title>c&#45;&gt;d+</title>
<path fill="none" stroke="black" d="M233.93,-65.93C242.75,-69.13 252.74,-72.77 262.08,-76.17"/>
<polygon fill="black" stroke="black" points="260.64,-79.37 271.23,-79.49 263.03,-72.79 260.64,-79.37"/>
</g>
<!-- f -->
<g id="node10" class="node">
<title>f</title>
<polygon fill="none" stroke="black" points="360,-0.5 360,-46.5 414,-46.5 414,-0.5 360,-0.5"/>
<text text-anchor="middle" x="387" y="-31.3" font-family="Times,serif" font-size="14.00">f</text>
<polyline fill="none" stroke="black" points="360,-23.5 414,-23.5"/>
<text text-anchor="middle" x="387" y="-8.3" font-family="Times,serif" font-size="14.00">&#45;2</text>
</g>
<!-- f&#45;&gt;L* -->
<g id="edge7" class="edge">
<title>f&#45;&gt;L*</title>
<path fill="none" stroke="black" d="M413.93,-32.93C422.75,-36.13 432.74,-39.77 442.08,-43.17"/>
<polygon fill="black" stroke="black" points="440.64,-46.37 451.23,-46.49 443.03,-39.79 440.64,-46.37"/>
</g>
</g>
</svg>
