<?xml version="1.0" encoding="UTF-8" standalone="no"?>
<!DOCTYPE svg PUBLIC "-//W3C//DTD SVG 1.1//EN"
 "http://www.w3.org/Graphics/SVG/1.1/DTD/svg11.dtd">
<!-- Generated by graphviz version 7.1.0 (0)
 -->
<!-- Title: micro Pages: 1 -->
<svg width="1192pt" height="342pt"
 viewBox="0.00 0.00 1192.00 342.00" xmlns="http://www.w3.org/2000/svg" xmlns:xlink="http://www.w3.org/1999/xlink">
<g id="graph0" class="graph" transform="scale(1 1) rotate(0) translate(4 338)">
<title>micro</title>
<polygon fill="white" stroke="none" points="-4,4 -4,-338 1188,-338 1188,4 -4,4"/>
<!-- o -->
<g id="node1" class="node">
<title>o</title>
<polygon fill="none" stroke="black" points="1049,-88.5 1049,-157.5 1184,-157.5 1184,-88.5 1049,-88.5"/>
<text text-anchor="middle" x="1116.5" y="-142.3" font-family="Times,serif" font-size="14.00">o</text>
<polyline fill="none" stroke="black" points="1049,-134.5 1184,-134.5"/>
<text text-anchor="middle" x="1116.5" y="-119.3" font-family="Times,serif" font-size="14.00">0.7071067811865476</text>
<polyline fill="none" stroke="black" points="1049,-111.5 1184,-111.5"/>
<text text-anchor="middle" x="1116.5" y="-96.3" font-family="Times,serif" font-size="14.00">1</text>
</g>
<!-- otanh -->
<g id="node2" class="node">
<title>otanh</title>
<ellipse fill="none" stroke="black" cx="986" cy="-123" rx="27" ry="18"/>
<text text-anchor="middle" x="986" y="-119.3" font-family="Times,serif" font-size="14.00">tanh</text>
</g>
<!-- otanh&#45;&gt;o -->
<g id="edge1" class="edge">
<title>otanh&#45;&gt;o</title>
<path fill="none" stroke="black" d="M1013.31,-123C1020.7,-123 1029.12,-123 1037.89,-123"/>
<polygon fill="black" stroke="black" points="1037.62,-126.5 1047.62,-123 1037.62,-119.5 1037.62,-126.5"/>
</g>
<!-- m -->
<g id="node3" class="node">
<title>m</title>
<polygon fill="none" stroke="black" points="788,-88.5 788,-157.5 923,-157.5 923,-88.5 788,-88.5"/>
<text text-anchor="middle" x="855.5" y="-142.3" font-family="Times,serif" font-size="14.00">m</text>
<polyline fill="none" stroke="black" points="788,-134.5 923,-134.5"/>
<text text-anchor="middle" x="855.5" y="-119.3" font-family="Times,serif" font-size="14.00">0.8813735870195432</text>
<polyline fill="none" stroke="black" points="788,-111.5 923,-111.5"/>
<text text-anchor="middle" x="855.5" y="-96.3" font-family="Times,serif" font-size="14.00">0.4999999999999999</text>
</g>
<!-- m&#45;&gt;otanh -->
<g id="edge2" class="edge">
<title>m&#45;&gt;otanh</title>
<path fill="none" stroke="black" d="M922.63,-123C931.13,-123 939.58,-123 947.39,-123"/>
<polygon fill="black" stroke="black" points="947.16,-126.5 957.16,-123 947.16,-119.5 947.16,-126.5"/>
</g>
<!-- x1w1+x2w2 -->
<g id="node4" class="node">
<title>x1w1+x2w2</title>
<polygon fill="none" stroke="black" points="527,-132.5 527,-201.5 662,-201.5 662,-132.5 527,-132.5"/>
<text text-anchor="middle" x="594.5" y="-186.3" font-family="Times,serif" font-size="14.00">x1w1+x2w2</text>
<polyline fill="none" stroke="black" points="527,-178.5 662,-178.5"/>
<text text-anchor="middle" x="594.5" y="-163.3" font-family="Times,serif" font-size="14.00">&#45;6</text>
<polyline fill="none" stroke="black" points="527,-155.5 662,-155.5"/>
<text text-anchor="middle" x="594.5" y="-140.3" font-family="Times,serif" font-size="14.00">0.4999999999999999</text>
</g>
<!-- m+ -->
<g id="node5" class="node">
<title>m+</title>
<ellipse fill="none" stroke="black" cx="725" cy="-123" rx="27" ry="18"/>
<text text-anchor="middle" x="725" y="-119.3" font-family="Times,serif" font-size="14.00">+</text>
</g>
<!-- x1w1+x2w2&#45;&gt;m+ -->
<g id="edge3" class="edge">
<title>x1w1+x2w2&#45;&gt;m+</title>
<path fill="none" stroke="black" d="M661.63,-144.36C671.3,-141.05 680.9,-137.76 689.58,-134.79"/>
<polygon fill="black" stroke="black" points="690.61,-138.13 698.94,-131.58 688.34,-131.51 690.61,-138.13"/>
</g>
<!-- m+&#45;&gt;m -->
<g id="edge11" class="edge">
<title>m+&#45;&gt;m</title>
<path fill="none" stroke="black" d="M752.31,-123C759.7,-123 768.12,-123 776.89,-123"/>
<polygon fill="black" stroke="black" points="776.62,-126.5 786.62,-123 776.62,-119.5 776.62,-126.5"/>
</g>
<!-- x1w1 -->
<g id="node6" class="node">
<title>x1w1</title>
<polygon fill="none" stroke="black" points="266,-176.5 266,-245.5 401,-245.5 401,-176.5 266,-176.5"/>
<text text-anchor="middle" x="333.5" y="-230.3" font-family="Times,serif" font-size="14.00">x1w1</text>
<polyline fill="none" stroke="black" points="266,-222.5 401,-222.5"/>
<text text-anchor="middle" x="333.5" y="-207.3" font-family="Times,serif" font-size="14.00">&#45;6</text>
<polyline fill="none" stroke="black" points="266,-199.5 401,-199.5"/>
<text text-anchor="middle" x="333.5" y="-184.3" font-family="Times,serif" font-size="14.00">0.4999999999999999</text>
</g>
<!-- x1w1+x2w2+ -->
<g id="node7" class="node">
<title>x1w1+x2w2+</title>
<ellipse fill="none" stroke="black" cx="464" cy="-167" rx="27" ry="18"/>
<text text-anchor="middle" x="464" y="-163.3" font-family="Times,serif" font-size="14.00">+</text>
</g>
<!-- x1w1&#45;&gt;x1w1+x2w2+ -->
<g id="edge4" class="edge">
<title>x1w1&#45;&gt;x1w1+x2w2+</title>
<path fill="none" stroke="black" d="M400.63,-188.36C410.3,-185.05 419.9,-181.76 428.58,-178.79"/>
<polygon fill="black" stroke="black" points="429.61,-182.13 437.94,-175.58 427.34,-175.51 429.61,-182.13"/>
</g>
<!-- x1w1+x2w2+&#45;&gt;x1w1+x2w2 -->
<g id="edge12" class="edge">
<title>x1w1+x2w2+&#45;&gt;x1w1+x2w2</title>
<path fill="none" stroke="black" d="M491.31,-167C498.7,-167 507.12,-167 515.89,-167"/>
<polygon fill="black" stroke="black" points="515.62,-170.5 525.62,-167 515.62,-163.5 515.62,-170.5"/>
</g>
<!-- x1 -->
<g id="node8" class="node">
<title>x1</title>
<polygon fill="none" stroke="black" points="0,-264.5 0,-333.5 140,-333.5 140,-264.5 0,-264.5"/>
<text text-anchor="middle" x="70" y="-318.3" font-family="Times,serif" font-size="14.00">x1</text>
<polyline fill="none" stroke="black" points="0,-310.5 140,-310.5"/>
<text text-anchor="middle" x="70" y="-295.3" font-family="Times,serif" font-size="14.00">2</text>
<polyline fill="none" stroke="black" points="0,-287.5 140,-287.5"/>
<text text-anchor="middle" x="70" y="-272.3" font-family="Times,serif" font-size="14.00">&#45;1.4999999999999996</text>
</g>
<!-- x1w1* -->
<g id="node9" class="node">
<title>x1w1*</title>
<ellipse fill="none" stroke="black" cx="203" cy="-211" rx="27" ry="18"/>
<text text-anchor="middle" x="203" y="-207.3" font-family="Times,serif" font-size="14.00">*</text>
</g>
<!-- x1&#45;&gt;x1w1* -->
<g id="edge5" class="edge">
<title>x1&#45;&gt;x1w1*</title>
<path fill="none" stroke="black" d="M125.4,-264.66C130.36,-261.43 135.29,-258.17 140,-255 151.49,-247.27 163.97,-238.49 174.7,-230.81"/>
<polygon fill="black" stroke="black" points="176.68,-233.7 182.76,-225.02 172.6,-228.02 176.68,-233.7"/>
</g>
<!-- x1w1*&#45;&gt;x1w1 -->
<g id="edge13" class="edge">
<title>x1w1*&#45;&gt;x1w1</title>
<path fill="none" stroke="black" d="M230.31,-211C237.7,-211 246.12,-211 254.89,-211"/>
<polygon fill="black" stroke="black" points="254.62,-214.5 264.62,-211 254.62,-207.5 254.62,-214.5"/>
</g>
<!-- w1 -->
<g id="node10" class="node">
<title>w1</title>
<polygon fill="none" stroke="black" points="2.5,-176.5 2.5,-245.5 137.5,-245.5 137.5,-176.5 2.5,-176.5"/>
<text text-anchor="middle" x="70" y="-230.3" font-family="Times,serif" font-size="14.00">w1</text>
<polyline fill="none" stroke="black" points="2.5,-222.5 137.5,-222.5"/>
<text text-anchor="middle" x="70" y="-207.3" font-family="Times,serif" font-size="14.00">&#45;3</text>
<polyline fill="none" stroke="black" points="2.5,-199.5 137.5,-199.5"/>
<text text-anchor="middle" x="70" y="-184.3" font-family="Times,serif" font-size="14.00">0.9999999999999998</text>
</g>
<!-- w1&#45;&gt;x1w1* -->
<g id="edge6" class="edge">
<title>w1&#45;&gt;x1w1*</title>
<path fill="none" stroke="black" d="M137.27,-211C146.5,-211 155.71,-211 164.17,-211"/>
<polygon fill="black" stroke="black" points="164.03,-214.5 174.03,-211 164.03,-207.5 164.03,-214.5"/>
</g>
<!-- x2w2 -->
<g id="node11" class="node">
<title>x2w2</title>
<polygon fill="none" stroke="black" points="266,-88.5 266,-157.5 401,-157.5 401,-88.5 266,-88.5"/>
<text text-anchor="middle" x="333.5" y="-142.3" font-family="Times,serif" font-size="14.00">x2w2</text>
<polyline fill="none" stroke="black" points="266,-134.5 401,-134.5"/>
<text text-anchor="middle" x="333.5" y="-119.3" font-family="Times,serif" font-size="14.00">0</text>
<polyline fill="none" stroke="black" points="266,-111.5 401,-111.5"/>
<text text-anchor="middle" x="333.5" y="-96.3" font-family="Times,serif" font-size="14.00">0.4999999999999999</text>
</g>
<!-- x2w2&#45;&gt;x1w1+x2w2+ -->
<g id="edge7" class="edge">
<title>x2w2&#45;&gt;x1w1+x2w2+</title>
<path fill="none" stroke="black" d="M400.63,-145.64C410.3,-148.95 419.9,-152.24 428.58,-155.21"/>
<polygon fill="black" stroke="black" points="427.34,-158.49 437.94,-158.42 429.61,-151.87 427.34,-158.49"/>
</g>
<!-- x2 -->
<g id="node12" class="node">
<title>x2</title>
<polygon fill="none" stroke="black" points="2.5,-88.5 2.5,-157.5 137.5,-157.5 137.5,-88.5 2.5,-88.5"/>
<text text-anchor="middle" x="70" y="-142.3" font-family="Times,serif" font-size="14.00">x2</text>
<polyline fill="none" stroke="black" points="2.5,-134.5 137.5,-134.5"/>
<text text-anchor="middle" x="70" y="-119.3" font-family="Times,serif" font-size="14.00">0</text>
<polyline fill="none" stroke="black" points="2.5,-111.5 137.5,-111.5"/>
<text text-anchor="middle" x="70" y="-96.3" font-family="Times,serif" font-size="14.00">0.4999999999999999</text>
</g>
<!-- x2w2* -->
<g id="node13" class="node">
<title>x2w2*</title>
<ellipse fill="none" stroke="black" cx="203" cy="-123" rx="27" ry="18"/>
<text text-anchor="middle" x="203" y="-119.3" font-family="Times,serif" font-size="14.00">*</text>
</g>
<!-- x2&#45;&gt;x2w2* -->
<g id="edge8" class="edge">
<title>x2&#45;&gt;x2w2*</title>
<path fill="none" stroke="black" d="M137.27,-123C146.5,-123 155.71,-123 164.17,-123"/>
<polygon fill="black" stroke="black" points="164.03,-126.5 174.03,-123 164.03,-119.5 164.03,-126.5"/>
</g>
<!-- x2w2*&#45;&gt;x2w2 -->
<g id="edge14" class="edge">
<title>x2w2*&#45;&gt;x2w2</title>
<path fill="none" stroke="black" d="M230.31,-123C237.7,-123 246.12,-123 254.89,-123"/>
<polygon fill="black" stroke="black" points="254.62,-126.5 264.62,-123 254.62,-119.5 254.62,-126.5"/>
</g>
<!-- w2 -->
<g id="node14" class="node">
<title>w2</title>
<polygon fill="none" stroke="black" points="43,-0.5 43,-69.5 97,-69.5 97,-0.5 43,-0.5"/>
<text text-anchor="middle" x="70" y="-54.3" font-family="Times,serif" font-size="14.00">w2</text>
<polyline fill="none" stroke="black" points="43,-46.5 97,-46.5"/>
<text text-anchor="middle" x="70" y="-31.3" font-family="Times,serif" font-size="14.00">1</text>
<polyline fill="none" stroke="black" points="43,-23.5 97,-23.5"/>
<text text-anchor="middle" x="70" y="-8.3" font-family="Times,serif" font-size="14.00">0</text>
</g>
<!-- w2&#45;&gt;x2w2* -->
<g id="edge9" class="edge">
<title>w2&#45;&gt;x2w2*</title>
<path fill="none" stroke="black" d="M96.76,-51C109.81,-59.22 125.86,-69.48 140,-79 151.49,-86.73 163.97,-95.51 174.7,-103.19"/>
<polygon fill="black" stroke="black" points="172.6,-105.98 182.76,-108.98 176.68,-100.3 172.6,-105.98"/>
</g>
<!-- b -->
<g id="node15" class="node">
<title>b</title>
<polygon fill="none" stroke="black" points="527,-44.5 527,-113.5 662,-113.5 662,-44.5 527,-44.5"/>
<text text-anchor="middle" x="594.5" y="-98.3" font-family="Times,serif" font-size="14.00">b</text>
<polyline fill="none" stroke="black" points="527,-90.5 662,-90.5"/>
<text text-anchor="middle" x="594.5" y="-75.3" font-family="Times,serif" font-size="14.00">6.881373587019543</text>
<polyline fill="none" stroke="black" points="527,-67.5 662,-67.5"/>
<text text-anchor="middle" x="594.5" y="-52.3" font-family="Times,serif" font-size="14.00">0.4999999999999999</text>
</g>
<!-- b&#45;&gt;m+ -->
<g id="edge10" class="edge">
<title>b&#45;&gt;m+</title>
<path fill="none" stroke="black" d="M661.63,-101.64C671.3,-104.95 680.9,-108.24 689.58,-111.21"/>
<polygon fill="black" stroke="black" points="688.34,-114.49 698.94,-114.42 690.61,-107.87 688.34,-114.49"/>
</g>
</g>
</svg>
