<?xml version="1.0" encoding="UTF-8" standalone="no"?>
<!DOCTYPE svg PUBLIC "-//W3C//DTD SVG 1.1//EN"
 "http://www.w3.org/Graphics/SVG/1.1/DTD/svg11.dtd">
<!-- Generated by graphviz version 7.1.0 (0)
 -->
<!-- Title: micro Pages: 1 -->
<svg width="602pt" height="254pt"
 viewBox="0.00 0.00 602.00 254.00" xmlns="http://www.w3.org/2000/svg" xmlns:xlink="http://www.w3.org/1999/xlink">
<g id="graph0" class="graph" transform="scale(1 1) rotate(0) translate(4 250)">
<title>micro</title>
<polygon fill="white" stroke="none" points="-4,4 -4,-250 598,-250 598,4 -4,4"/>
<!-- L -->
<g id="node1" class="node">
<title>L</title>
<polygon fill="none" stroke="black" points="540,-44.5 540,-113.5 594,-113.5 594,-44.5 540,-44.5"/>
<text text-anchor="middle" x="567" y="-98.3" font-family="Times,serif" font-size="14.00">L</text>
<polyline fill="none" stroke="black" points="540,-90.5 594,-90.5"/>
<text text-anchor="middle" x="567" y="-75.3" font-family="Times,serif" font-size="14.00">7</text>
<polyline fill="none" stroke="black" points="540,-67.5 594,-67.5"/>
<text text-anchor="middle" x="567" y="-52.3" font-family="Times,serif" font-size="14.00">1</text>
</g>
<!-- L* -->
<g id="node2" class="node">
<title>L*</title>
<ellipse fill="none" stroke="black" cx="477" cy="-79" rx="27" ry="18"/>
<text text-anchor="middle" x="477" y="-75.3" font-family="Times,serif" font-size="14.00">*</text>
</g>
<!-- L*&#45;&gt;L -->
<g id="edge1" class="edge">
<title>L*&#45;&gt;L</title>
<path fill="none" stroke="black" d="M504.4,-79C512.11,-79 520.68,-79 528.92,-79"/>
<polygon fill="black" stroke="black" points="528.71,-82.5 538.71,-79 528.71,-75.5 528.71,-82.5"/>
</g>
<!-- d -->
<g id="node3" class="node">
<title>d</title>
<polygon fill="none" stroke="black" points="360,-88.5 360,-157.5 414,-157.5 414,-88.5 360,-88.5"/>
<text text-anchor="middle" x="387" y="-142.3" font-family="Times,serif" font-size="14.00">d</text>
<polyline fill="none" stroke="black" points="360,-134.5 414,-134.5"/>
<text text-anchor="middle" x="387" y="-119.3" font-family="Times,serif" font-size="14.00">9</text>
<polyline fill="none" stroke="black" points="360,-111.5 414,-111.5"/>
<text text-anchor="middle" x="387" y="-96.3" font-family="Times,serif" font-size="14.00">&#45;2</text>
</g>
<!-- d&#45;&gt;L* -->
<g id="edge2" class="edge">
<title>d&#45;&gt;L*</title>
<path fill="none" stroke="black" d="M413.93,-110.04C423.56,-105.22 434.59,-99.7 444.66,-94.67"/>
<polygon fill="black" stroke="black" points="445.96,-97.93 453.34,-90.33 442.83,-91.67 445.96,-97.93"/>
</g>
<!-- e -->
<g id="node4" class="node">
<title>e</title>
<polygon fill="none" stroke="black" points="180,-132.5 180,-201.5 234,-201.5 234,-132.5 180,-132.5"/>
<text text-anchor="middle" x="207" y="-186.3" font-family="Times,serif" font-size="14.00">e</text>
<polyline fill="none" stroke="black" points="180,-178.5 234,-178.5"/>
<text text-anchor="middle" x="207" y="-163.3" font-family="Times,serif" font-size="14.00">&#45;1</text>
<polyline fill="none" stroke="black" points="180,-155.5 234,-155.5"/>
<text text-anchor="middle" x="207" y="-140.3" font-family="Times,serif" font-size="14.00">&#45;2</text>
</g>
<!-- d+ -->
<g id="node5" class="node">
<title>d+</title>
<ellipse fill="none" stroke="black" cx="297" cy="-123" rx="27" ry="18"/>
<text text-anchor="middle" x="297" y="-119.3" font-family="Times,serif" font-size="14.00">+</text>
</g>
<!-- e&#45;&gt;d+ -->
<g id="edge3" class="edge">
<title>e&#45;&gt;d+</title>
<path fill="none" stroke="black" d="M233.93,-154.04C243.56,-149.22 254.59,-143.7 264.66,-138.67"/>
<polygon fill="black" stroke="black" points="265.96,-141.93 273.34,-134.33 262.83,-135.67 265.96,-141.93"/>
</g>
<!-- d+&#45;&gt;d -->
<g id="edge8" class="edge">
<title>d+&#45;&gt;d</title>
<path fill="none" stroke="black" d="M324.4,-123C332.11,-123 340.68,-123 348.92,-123"/>
<polygon fill="black" stroke="black" points="348.71,-126.5 358.71,-123 348.71,-119.5 348.71,-126.5"/>
</g>
<!-- a -->
<g id="node6" class="node">
<title>a</title>
<polygon fill="none" stroke="black" points="0,-176.5 0,-245.5 54,-245.5 54,-176.5 0,-176.5"/>
<text text-anchor="middle" x="27" y="-230.3" font-family="Times,serif" font-size="14.00">a</text>
<polyline fill="none" stroke="black" points="0,-222.5 54,-222.5"/>
<text text-anchor="middle" x="27" y="-207.3" font-family="Times,serif" font-size="14.00">2</text>
<polyline fill="none" stroke="black" points="0,-199.5 54,-199.5"/>
<text text-anchor="middle" x="27" y="-184.3" font-family="Times,serif" font-size="14.00">6</text>
</g>
<!-- e* -->
<g id="node7" class="node">
<title>e*</title>
<ellipse fill="none" stroke="black" cx="117" cy="-167" rx="27" ry="18"/>
<text text-anchor="middle" x="117" y="-163.3" font-family="Times,serif" font-size="14.00">*</text>
</g>
<!-- a&#45;&gt;e* -->
<g id="edge4" class="edge">
<title>a&#45;&gt;e*</title>
<path fill="none" stroke="black" d="M53.93,-198.04C63.56,-193.22 74.59,-187.7 84.66,-182.67"/>
<polygon fill="black" stroke="black" points="85.96,-185.93 93.34,-178.33 82.83,-179.67 85.96,-185.93"/>
</g>
<!-- e*&#45;&gt;e -->
<g id="edge9" class="edge">
<title>e*&#45;&gt;e</title>
<path fill="none" stroke="black" d="M144.4,-167C152.11,-167 160.68,-167 168.92,-167"/>
<polygon fill="black" stroke="black" points="168.71,-170.5 178.71,-167 168.71,-163.5 168.71,-170.5"/>
</g>
<!-- b -->
<g id="node8" class="node">
<title>b</title>
<polygon fill="none" stroke="black" points="0,-88.5 0,-157.5 54,-157.5 54,-88.5 0,-88.5"/>
<text text-anchor="middle" x="27" y="-142.3" font-family="Times,serif" font-size="14.00">b</text>
<polyline fill="none" stroke="black" points="0,-134.5 54,-134.5"/>
<text text-anchor="middle" x="27" y="-119.3" font-family="Times,serif" font-size="14.00">&#45;3</text>
<polyline fill="none" stroke="black" points="0,-111.5 54,-111.5"/>
<text text-anchor="middle" x="27" y="-96.3" font-family="Times,serif" font-size="14.00">&#45;4</text>
</g>
<!-- b&#45;&gt;e* -->
<g id="edge5" class="edge">
<title>b&#45;&gt;e*</title>
<path fill="none" stroke="black" d="M53.93,-135.96C63.56,-140.78 74.59,-146.3 84.66,-151.33"/>
<polygon fill="black" stroke="black" points="82.83,-154.33 93.34,-155.67 85.96,-148.07 82.83,-154.33"/>
</g>
<!-- c -->
<g id="node9" class="node">
<title>c</title>
<polygon fill="none" stroke="black" points="180,-44.5 180,-113.5 234,-113.5 234,-44.5 180,-44.5"/>
<text text-anchor="middle" x="207" y="-98.3" font-family="Times,serif" font-size="14.00">c</text>
<polyline fill="none" stroke="black" points="180,-90.5 234,-90.5"/>
<text text-anchor="middle" x="207" y="-75.3" font-family="Times,serif" font-size="14.00">10</text>
<polyline fill="none" stroke="black" points="180,-67.5 234,-67.5"/>
<text text-anchor="middle" x="207" y="-52.3" font-family="Times,serif" font-size="14.00">&#45;2</text>
</g>
<!-- c&#45;&gt;d+ -->
<g id="edge6" class="edge">
<title>c&#45;&gt;d+</title>
<path fill="none" stroke="black" d="M233.93,-91.96C243.56,-96.78 254.59,-102.3 264.66,-107.33"/>
<polygon fill="black" stroke="black" points="262.83,-110.33 273.34,-111.67 265.96,-104.07 262.83,-110.33"/>
</g>
<!-- f -->
<g id="node10" class="node">
<title>f</title>
<polygon fill="none" stroke="black" points="360,-0.5 360,-69.5 414,-69.5 414,-0.5 360,-0.5"/>
<text text-anchor="middle" x="387" y="-54.3" font-family="Times,serif" font-size="14.00">f</text>
<polyline fill="none" stroke="black" points="360,-46.5 414,-46.5"/>
<text text-anchor="middle" x="387" y="-31.3" font-family="Times,serif" font-size="14.00">&#45;2</text>
<polyline fill="none" stroke="black" points="360,-23.5 414,-23.5"/>
<text text-anchor="middle" x="387" y="-8.3" font-family="Times,serif" font-size="14.00">9</text>
</g>
<!-- f&#45;&gt;L* -->
<g id="edge7" class="edge">
<title>f&#45;&gt;L*</title>
<path fill="none" stroke="black" d="M413.93,-47.96C423.56,-52.78 434.59,-58.3 444.66,-63.33"/>
<polygon fill="black" stroke="black" points="442.83,-66.33 453.34,-67.67 445.96,-60.07 442.83,-66.33"/>
</g>
</g>
</svg>
